<mxfile host="Electron" modified="2023-08-04T10:03:06.643Z" agent="Mozilla/5.0 (Macintosh; Intel Mac OS X 10_15_7) AppleWebKit/537.36 (KHTML, like Gecko) draw.io/21.5.0 Chrome/112.0.5615.204 Electron/24.5.1 Safari/537.36" etag="xyNnSACxtFB00ZwGuqLb" version="21.5.0" type="device">
  <diagram id="C5RBs43oDa-KdzZeNtuy" name="Page-1">
    <mxGraphModel dx="884" dy="674" grid="1" gridSize="10" guides="1" tooltips="1" connect="1" arrows="1" fold="1" page="1" pageScale="1" pageWidth="827" pageHeight="1169" math="0" shadow="0">
      <root>
        <mxCell id="WIyWlLk6GJQsqaUBKTNV-0" />
        <mxCell id="WIyWlLk6GJQsqaUBKTNV-1" parent="WIyWlLk6GJQsqaUBKTNV-0" />
        <mxCell id="ONS6CNeB0ztVskqRVB19-21" style="edgeStyle=orthogonalEdgeStyle;rounded=0;orthogonalLoop=1;jettySize=auto;html=1;exitX=1;exitY=0.5;exitDx=0;exitDy=0;entryX=0;entryY=0.5;entryDx=0;entryDy=0;" edge="1" parent="WIyWlLk6GJQsqaUBKTNV-1" source="ONS6CNeB0ztVskqRVB19-1" target="ONS6CNeB0ztVskqRVB19-20">
          <mxGeometry relative="1" as="geometry" />
        </mxCell>
        <mxCell id="ONS6CNeB0ztVskqRVB19-1" value="Decagon raw data&lt;br&gt;&lt;font style=&quot;font-size: 6px;&quot;&gt;(http://snap.stanford.edu/decagon)&lt;/font&gt;" style="rounded=0;whiteSpace=wrap;html=1;fillColor=#0050ef;fontColor=#ffffff;strokeColor=#001DBC;" vertex="1" parent="WIyWlLk6GJQsqaUBKTNV-1">
          <mxGeometry x="40" y="130" width="120" height="60" as="geometry" />
        </mxCell>
        <mxCell id="ONS6CNeB0ztVskqRVB19-41" style="edgeStyle=orthogonalEdgeStyle;rounded=0;orthogonalLoop=1;jettySize=auto;html=1;exitX=1;exitY=0.5;exitDx=0;exitDy=0;entryX=0;entryY=0.5;entryDx=0;entryDy=0;" edge="1" parent="WIyWlLk6GJQsqaUBKTNV-1" source="ONS6CNeB0ztVskqRVB19-4" target="ONS6CNeB0ztVskqRVB19-24">
          <mxGeometry relative="1" as="geometry" />
        </mxCell>
        <mxCell id="ONS6CNeB0ztVskqRVB19-4" value="&#39;Selfloops&#39; dataset" style="rounded=1;whiteSpace=wrap;html=1;fillColor=#008a00;fontColor=#ffffff;strokeColor=#005700;" vertex="1" parent="WIyWlLk6GJQsqaUBKTNV-1">
          <mxGeometry x="320" y="210" width="120" height="60" as="geometry" />
        </mxCell>
        <mxCell id="ONS6CNeB0ztVskqRVB19-40" style="edgeStyle=orthogonalEdgeStyle;rounded=0;orthogonalLoop=1;jettySize=auto;html=1;exitX=1;exitY=0.5;exitDx=0;exitDy=0;entryX=0;entryY=0.5;entryDx=0;entryDy=0;" edge="1" parent="WIyWlLk6GJQsqaUBKTNV-1" source="ONS6CNeB0ztVskqRVB19-7" target="ONS6CNeB0ztVskqRVB19-24">
          <mxGeometry relative="1" as="geometry" />
        </mxCell>
        <mxCell id="ONS6CNeB0ztVskqRVB19-7" value="&#39;Non-naive&#39; dataset" style="rounded=1;whiteSpace=wrap;html=1;fillColor=#008a00;fontColor=#ffffff;strokeColor=#005700;" vertex="1" parent="WIyWlLk6GJQsqaUBKTNV-1">
          <mxGeometry x="320" y="50" width="120" height="60" as="geometry" />
        </mxCell>
        <mxCell id="ONS6CNeB0ztVskqRVB19-44" style="edgeStyle=orthogonalEdgeStyle;rounded=0;orthogonalLoop=1;jettySize=auto;html=1;exitX=1;exitY=0.5;exitDx=0;exitDy=0;" edge="1" parent="WIyWlLk6GJQsqaUBKTNV-1" source="ONS6CNeB0ztVskqRVB19-12" target="ONS6CNeB0ztVskqRVB19-18">
          <mxGeometry relative="1" as="geometry" />
        </mxCell>
        <mxCell id="ONS6CNeB0ztVskqRVB19-12" value="Training edges" style="rounded=1;whiteSpace=wrap;html=1;fillColor=#008a00;fontColor=#ffffff;strokeColor=#005700;" vertex="1" parent="WIyWlLk6GJQsqaUBKTNV-1">
          <mxGeometry x="560" y="210" width="120" height="60" as="geometry" />
        </mxCell>
        <mxCell id="ONS6CNeB0ztVskqRVB19-45" style="edgeStyle=orthogonalEdgeStyle;rounded=0;orthogonalLoop=1;jettySize=auto;html=1;exitX=1;exitY=0.5;exitDx=0;exitDy=0;" edge="1" parent="WIyWlLk6GJQsqaUBKTNV-1" source="ONS6CNeB0ztVskqRVB19-13" target="ONS6CNeB0ztVskqRVB19-31">
          <mxGeometry relative="1" as="geometry" />
        </mxCell>
        <mxCell id="ONS6CNeB0ztVskqRVB19-13" value="10% of edges from each polypharmacy side effect" style="rounded=1;whiteSpace=wrap;html=1;fillColor=#008a00;fontColor=#ffffff;strokeColor=#005700;" vertex="1" parent="WIyWlLk6GJQsqaUBKTNV-1">
          <mxGeometry x="680" y="30" width="120" height="60" as="geometry" />
        </mxCell>
        <mxCell id="ONS6CNeB0ztVskqRVB19-46" style="edgeStyle=orthogonalEdgeStyle;rounded=0;orthogonalLoop=1;jettySize=auto;html=1;exitX=1;exitY=0.5;exitDx=0;exitDy=0;entryX=0;entryY=0.5;entryDx=0;entryDy=0;" edge="1" parent="WIyWlLk6GJQsqaUBKTNV-1" source="ONS6CNeB0ztVskqRVB19-18" target="ONS6CNeB0ztVskqRVB19-29">
          <mxGeometry relative="1" as="geometry" />
        </mxCell>
        <mxCell id="ONS6CNeB0ztVskqRVB19-18" value="LibKGE" style="rhombus;whiteSpace=wrap;html=1;fillColor=#f0a30a;fontColor=#000000;strokeColor=#BD7000;" vertex="1" parent="WIyWlLk6GJQsqaUBKTNV-1">
          <mxGeometry x="720" y="200" width="80" height="80" as="geometry" />
        </mxCell>
        <mxCell id="ONS6CNeB0ztVskqRVB19-22" style="edgeStyle=orthogonalEdgeStyle;rounded=0;orthogonalLoop=1;jettySize=auto;html=1;exitX=0.5;exitY=0;exitDx=0;exitDy=0;entryX=0;entryY=0.5;entryDx=0;entryDy=0;" edge="1" parent="WIyWlLk6GJQsqaUBKTNV-1" source="ONS6CNeB0ztVskqRVB19-20" target="ONS6CNeB0ztVskqRVB19-7">
          <mxGeometry relative="1" as="geometry" />
        </mxCell>
        <mxCell id="ONS6CNeB0ztVskqRVB19-23" style="edgeStyle=orthogonalEdgeStyle;rounded=0;orthogonalLoop=1;jettySize=auto;html=1;exitX=0.5;exitY=1;exitDx=0;exitDy=0;entryX=0;entryY=0.5;entryDx=0;entryDy=0;" edge="1" parent="WIyWlLk6GJQsqaUBKTNV-1" source="ONS6CNeB0ztVskqRVB19-20" target="ONS6CNeB0ztVskqRVB19-4">
          <mxGeometry relative="1" as="geometry" />
        </mxCell>
        <mxCell id="ONS6CNeB0ztVskqRVB19-20" value="&lt;font style=&quot;font-size: 11px;&quot;&gt;Graph construction&lt;/font&gt;" style="rhombus;whiteSpace=wrap;html=1;fillColor=#f0a30a;fontColor=#000000;strokeColor=#BD7000;" vertex="1" parent="WIyWlLk6GJQsqaUBKTNV-1">
          <mxGeometry x="220" y="120" width="80" height="80" as="geometry" />
        </mxCell>
        <mxCell id="ONS6CNeB0ztVskqRVB19-42" style="edgeStyle=orthogonalEdgeStyle;rounded=0;orthogonalLoop=1;jettySize=auto;html=1;exitX=0.5;exitY=1;exitDx=0;exitDy=0;entryX=0;entryY=0.5;entryDx=0;entryDy=0;" edge="1" parent="WIyWlLk6GJQsqaUBKTNV-1" source="ONS6CNeB0ztVskqRVB19-24" target="ONS6CNeB0ztVskqRVB19-12">
          <mxGeometry relative="1" as="geometry" />
        </mxCell>
        <mxCell id="ONS6CNeB0ztVskqRVB19-43" style="edgeStyle=orthogonalEdgeStyle;rounded=0;orthogonalLoop=1;jettySize=auto;html=1;exitX=0.5;exitY=0;exitDx=0;exitDy=0;entryX=0;entryY=0.5;entryDx=0;entryDy=0;" edge="1" parent="WIyWlLk6GJQsqaUBKTNV-1" source="ONS6CNeB0ztVskqRVB19-24" target="ONS6CNeB0ztVskqRVB19-13">
          <mxGeometry relative="1" as="geometry" />
        </mxCell>
        <mxCell id="ONS6CNeB0ztVskqRVB19-24" value="&lt;font style=&quot;font-size: 11px;&quot;&gt;Holdout &lt;br&gt;split&lt;/font&gt;" style="rhombus;whiteSpace=wrap;html=1;fillColor=#f0a30a;fontColor=#000000;strokeColor=#BD7000;" vertex="1" parent="WIyWlLk6GJQsqaUBKTNV-1">
          <mxGeometry x="480" y="120" width="80" height="80" as="geometry" />
        </mxCell>
        <mxCell id="ONS6CNeB0ztVskqRVB19-47" style="edgeStyle=orthogonalEdgeStyle;rounded=0;orthogonalLoop=1;jettySize=auto;html=1;exitX=1;exitY=0.5;exitDx=0;exitDy=0;entryX=0.5;entryY=1;entryDx=0;entryDy=0;" edge="1" parent="WIyWlLk6GJQsqaUBKTNV-1" source="ONS6CNeB0ztVskqRVB19-29" target="ONS6CNeB0ztVskqRVB19-31">
          <mxGeometry relative="1" as="geometry" />
        </mxCell>
        <mxCell id="ONS6CNeB0ztVskqRVB19-29" value="Trained&lt;br&gt;model(s)" style="ellipse;whiteSpace=wrap;html=1;aspect=fixed;fillColor=#647687;strokeColor=#314354;fontColor=#ffffff;" vertex="1" parent="WIyWlLk6GJQsqaUBKTNV-1">
          <mxGeometry x="840" y="200" width="80" height="80" as="geometry" />
        </mxCell>
        <mxCell id="ONS6CNeB0ztVskqRVB19-48" style="edgeStyle=orthogonalEdgeStyle;rounded=0;orthogonalLoop=1;jettySize=auto;html=1;exitX=1;exitY=0.5;exitDx=0;exitDy=0;" edge="1" parent="WIyWlLk6GJQsqaUBKTNV-1" source="ONS6CNeB0ztVskqRVB19-31" target="ONS6CNeB0ztVskqRVB19-36">
          <mxGeometry relative="1" as="geometry" />
        </mxCell>
        <mxCell id="ONS6CNeB0ztVskqRVB19-31" value="&lt;font style=&quot;font-size: 11px;&quot;&gt;Assessment&lt;/font&gt;" style="rhombus;whiteSpace=wrap;html=1;fillColor=#f0a30a;fontColor=#000000;strokeColor=#BD7000;" vertex="1" parent="WIyWlLk6GJQsqaUBKTNV-1">
          <mxGeometry x="920" y="120" width="80" height="80" as="geometry" />
        </mxCell>
        <mxCell id="ONS6CNeB0ztVskqRVB19-36" value="Results" style="rounded=0;whiteSpace=wrap;html=1;fillColor=#0050ef;fontColor=#ffffff;strokeColor=#001DBC;" vertex="1" parent="WIyWlLk6GJQsqaUBKTNV-1">
          <mxGeometry x="1040" y="130" width="120" height="60" as="geometry" />
        </mxCell>
      </root>
    </mxGraphModel>
  </diagram>
</mxfile>
